# xmcd
#
# Track frame offsets: 
#        150
#        17890
#        36915
#        57505
#
# Disc length: 1041 seconds
#
# Revision: 4
# Processed by: cddbd v1.5.2PL0 Copyright (c) Steve Scherf et al.
# Submitted via: ExactAudioCopy v0.99pb4
#
DISCID=31040f04
DTITLE=Warren G. and Nate Dogg - Regulate
DYEAR=1994
DGENRE=Rap
TTITLE0=Regulate (Jamming Mix)
TTITLE1=Regulate (Radio Version)
TTITLE2=Pain (2-Pac)
TTITLE3=Loyal To The Game (2-Pac)
EXTD=YEAR: 1994
EXTT0=
EXTT1=
EXTT2=
EXTT3=
PLAYORDER=
